<?xml version="1.0" standalone="no"?>
<!DOCTYPE svg PUBLIC "-//W3C//DTD SVG 20010904//EN"
 "http://www.w3.org/TR/2001/REC-SVG-20010904/DTD/svg10.dtd">
<svg version="1.0" xmlns="http://www.w3.org/2000/svg"
 width="300.000000pt" height="163.000000pt" viewBox="0 0 300.000000 163.000000"
 preserveAspectRatio="xMidYMid meet">
<metadata>
Created by potrace 1.10, written by Peter Selinger 2001-2011
</metadata>
<g transform="translate(0.000000,163.000000) scale(0.100000,-0.100000)"
fill="#000000" stroke="none">
<path d="M2088 1335 c-18 -27 -71 -100 -118 -164 -121 -167 -256 -380 -317
-501 -29 -58 -53 -109 -53 -115 1 -5 23 33 50 85 27 52 90 154 139 225 215
312 343 506 338 511 -3 4 -21 -15 -39 -41z"/>
<path d="M1990 1348 c-14 -5 -39 -16 -55 -23 -21 -9 -62 -57 -136 -161 -118
-165 -144 -204 -136 -204 3 0 20 23 38 51 18 28 58 85 90 127 32 43 72 96 90
120 35 47 49 56 124 83 27 10 41 18 30 18 -11 0 -31 -5 -45 -11z"/>
<path d="M2030 1039 c-134 -71 -150 -83 -124 -93 10 -4 15 -4 12 0 -6 5 34 29
175 102 48 24 100 25 197 3 63 -15 106 -20 138 -16 45 7 46 6 25 -9 -13 -9
-96 -56 -185 -105 -398 -215 -564 -341 -671 -511 -12 -18 -16 -31 -9 -26 17
10 15 -9 -2 -23 -29 -25 -25 9 9 75 39 75 105 166 144 200 l26 23 -25 9 c-22
9 -23 11 -7 17 9 4 17 16 17 28 0 11 7 28 16 38 8 9 17 23 18 31 1 7 10 28 19
46 10 17 14 32 9 32 -14 0 -130 -185 -181 -290 -27 -55 -52 -94 -55 -87 -3 6
-3 2 0 -10 3 -13 1 -23 -5 -23 -6 0 -8 -7 -5 -15 4 -8 1 -15 -6 -15 -6 0 -9
-4 -6 -9 3 -5 -3 -35 -14 -66 -11 -32 -18 -61 -15 -64 3 -3 8 5 12 17 3 12 9
20 13 17 4 -2 22 12 41 31 34 37 123 100 169 121 59 27 202 53 302 55 27 1 45
5 41 11 -3 5 -19 6 -35 3 -25 -5 -28 -3 -19 7 13 17 5 27 -22 27 -11 0 -21 -9
-24 -20 -3 -12 -13 -20 -22 -19 -9 1 -18 0 -21 -1 -24 -9 -50 -8 -45 1 4 6 -3
5 -15 -3 -18 -10 -24 -10 -27 0 -3 6 -9 12 -15 12 -6 0 -8 -7 -4 -15 3 -8 1
-15 -3 -15 -5 0 -18 -3 -28 -6 -14 -4 -15 -4 -4 4 8 6 10 15 6 22 -5 9 -4 11
3 6 7 -4 12 -2 12 4 0 7 14 25 31 41 17 16 28 29 24 29 -3 0 1 7 10 16 31 31
5 27 -33 -4 -20 -18 -69 -54 -108 -82 -39 -27 -92 -73 -118 -102 -57 -65 -61
-51 -5 17 92 111 145 149 544 387 121 72 247 147 279 167 l60 36 -75 7 c-41 4
-118 16 -173 28 -54 11 -106 20 -115 20 -9 0 -68 -28 -131 -61z"/>
<path d="M603 801 c-181 -99 -183 -110 -3 -17 52 27 118 55 145 62 28 7 40 13
28 13 -12 1 -27 3 -35 5 -7 2 -68 -26 -135 -63z"/>
<path d="M803 839 c-9 -12 1 -14 62 -14 40 0 71 -3 69 -7 -5 -8 88 0 95 9 4 3
-13 3 -37 -1 -29 -4 -41 -3 -37 4 4 6 -6 10 -23 10 -16 0 -49 3 -73 6 -32 4
-48 2 -56 -7z"/>
<path d="M1104 801 c4 -6 20 -11 36 -11 16 0 32 -5 35 -10 4 -6 10 -8 15 -5 5
3 11 1 15 -4 3 -6 12 -8 19 -5 7 3 20 -1 27 -9 8 -7 20 -12 28 -9 10 3 12 0 8
-12 -3 -8 -3 -15 1 -14 4 1 23 -1 42 -5 26 -6 31 -10 21 -17 -12 -7 -9 -10 12
-15 14 -4 25 -12 24 -19 -1 -6 6 -10 15 -10 10 1 17 -1 16 -5 -3 -13 24 -67
38 -78 12 -9 19 -49 29 -158 8 -81 16 -150 20 -153 3 -3 4 63 3 147 -2 84 -4
145 -6 137 -4 -21 -22 -21 -22 -1 0 46 -71 143 -133 182 -74 47 -261 104 -243
74z"/>
<path d="M1866 755 c-8 -9 -17 -15 -18 -14 -2 1 -13 -1 -26 -5 -15 -5 -21 -13
-18 -22 3 -8 -1 -14 -10 -14 -21 0 -47 -27 -34 -35 6 -3 34 14 64 39 29 25 58
46 65 46 6 0 11 5 11 10 0 15 -16 12 -34 -5z"/>
<path d="M1950 668 c0 -6 3 -9 6 -6 3 3 30 0 61 -7 31 -7 62 -11 69 -8 6 2 15
0 19 -6 3 -6 13 -11 21 -11 8 0 12 5 9 10 -9 14 6 13 123 -10 82 -16 126 -32
210 -75 59 -30 125 -57 147 -60 58 -8 -228 130 -298 144 -59 12 -298 41 -339
41 -16 0 -28 -5 -28 -12z"/>
<path d="M326 641 c5 -5 20 -11 34 -13 14 -1 24 -7 22 -13 -1 -6 31 -13 75
-16 70 -6 67 -6 -34 -5 -92 1 -109 -1 -100 -12 8 -10 28 -12 76 -7 94 9 491
-30 621 -61 58 -13 142 -40 188 -58 87 -35 106 -39 45 -7 -101 50 -328 114
-403 112 -19 -1 -30 2 -24 6 7 5 -28 9 -78 10 -107 2 -149 10 -127 24 9 7 -2
8 -36 4 -38 -4 -45 -3 -30 5 15 8 5 9 -40 5 -42 -3 -54 -2 -40 5 15 7 9 9 -30
9 -27 -1 -66 4 -85 10 -42 13 -47 14 -34 2z"/>
<path d="M1516 618 c-3 -13 -6 -30 -6 -37 0 -25 21 4 24 33 4 32 -9 35 -18 4z"/>
<path d="M293 556 c3 -8 1 -17 -6 -20 -7 -2 17 -5 53 -5 36 -1 144 -3 240 -5
192 -5 124 7 -109 18 -68 4 -132 11 -142 16 -26 14 -42 12 -36 -4z"/>
<path d="M2081 559 c6 -4 30 -7 52 -7 61 -1 118 -13 111 -23 -3 -5 0 -9 5 -9
6 0 11 5 11 10 0 6 8 10 18 10 14 0 15 -2 2 -10 -11 -7 -8 -10 15 -9 17 0 24
3 18 6 -7 2 -13 11 -13 19 0 15 -13 17 -147 19 -46 0 -78 -2 -72 -6z"/>
<path d="M788 513 c18 -2 45 -2 60 0 15 2 0 4 -33 4 -33 0 -45 -2 -27 -4z"/>
<path d="M634 491 c22 -24 20 -31 -8 -31 -20 0 -24 4 -21 22 4 16 2 19 -7 10
-7 -7 -25 -12 -41 -12 -16 0 -26 -4 -22 -10 3 -5 -1 -10 -10 -10 -9 0 -14 -4
-11 -8 3 -5 -7 -7 -23 -4 -15 2 -43 -3 -62 -12 l-34 -16 55 5 c30 2 91 7 135
10 44 3 90 8 102 11 51 10 303 4 383 -10 144 -26 275 -77 354 -139 21 -17 37
-25 34 -17 -8 25 -150 115 -225 144 -110 42 -243 66 -398 72 -77 2 -157 6
-178 8 -36 4 -38 3 -23 -13z"/>
<path d="M1945 480 c-33 -6 -80 -17 -105 -25 -25 -8 -34 -13 -20 -10 199 39
374 29 655 -39 9 -2 69 -20 215 -64 73 -22 -51 -1 -200 34 -231 54 -297 64
-430 71 -96 4 -144 2 -208 -11 -45 -9 -88 -14 -95 -10 -7 4 -9 4 -5 -1 4 -4
-20 -21 -54 -37 -67 -31 -133 -80 -148 -109 -8 -13 8 -7 52 21 100 62 231 101
364 107 128 6 237 -5 465 -48 90 -16 199 -32 243 -34 43 -2 84 -9 90 -15 8 -8
5 -9 -14 -2 -30 11 -50 5 -50 -14 0 -10 10 -14 35 -12 19 1 41 -4 47 -11 20
-20 -138 -6 -497 44 -164 23 -293 28 -395 16 -94 -12 -241 -51 -270 -72 -12
-9 -11 -10 5 -4 131 43 324 53 605 31 113 -9 286 -21 385 -27 99 -5 193 -14
209 -19 29 -9 29 -9 -13 34 -24 24 -84 69 -135 100 -69 43 -83 49 -56 24 33
-30 33 -30 5 -13 -16 10 -45 29 -63 42 -26 19 -57 28 -135 39 -131 18 -404 26
-482 14z"/>
<path d="M346 450 c-48 -36 -57 -46 -31 -32 32 17 90 62 79 62 -5 0 -26 -14
-48 -30z"/>
<path d="M2580 471 l-45 -7 55 -7 c123 -14 149 -15 143 -2 -9 24 -58 29 -153
16z"/>
<path d="M377 391 c-77 -11 -122 -22 -128 -32 -30 -44 -32 -52 -13 -45 62 25
487 66 679 66 134 0 319 -22 386 -45 67 -24 69 -16 3 10 -155 60 -411 75 -692
41 -78 -9 -147 -14 -152 -11 -6 3 -10 1 -10 -5 0 -7 -20 -9 -57 -6 -39 4 -51
3 -38 -4 13 -6 15 -9 5 -9 -8 0 -21 3 -29 8 -19 12 2 17 119 30 52 6 109 13
125 15 17 1 5 3 -25 3 -30 1 -108 -7 -173 -16z"/>
<path d="M1887 370 c-38 -5 -101 -18 -140 -30 -69 -21 -191 -79 -183 -87 2 -2
19 5 38 17 54 31 170 68 260 81 103 15 349 6 506 -19 61 -10 109 -15 105 -11
-14 12 -289 49 -405 53 -62 3 -144 1 -181 -4z"/>
<path d="M180 290 c0 -5 -6 -10 -14 -10 -8 0 -17 -4 -20 -8 -3 -5 8 -6 24 -4
17 2 28 8 25 12 -3 5 5 11 17 13 20 4 19 4 -4 6 -16 0 -28 -3 -28 -9z"/>
<path d="M1080 289 c-19 -4 -138 -8 -265 -8 -126 0 -255 -4 -285 -8 -31 -5 83
-7 255 -5 250 3 313 6 325 18 8 8 12 14 10 13 -3 -1 -21 -5 -40 -10z"/>
<path d="M71 223 c-9 -6 -14 -14 -11 -17 8 -8 28 -8 664 -7 507 1 590 -1 600
-13 9 -13 123 -16 804 -22 l792 -7 0 20 c0 28 -38 36 -96 22 -44 -11 -201 -10
-814 7 -128 4 -260 2 -325 -5 -104 -10 -111 -9 -127 9 -20 25 -58 25 -121 3
-46 -16 -49 -16 -80 2 -31 19 -55 20 -651 20 -456 0 -623 -3 -635 -12z"/>
</g>
</svg>
